<svg xmlns="http://www.w3.org/2000/svg" viewBox="0 0 288 304.43"><title>Asset 21</title><g id="Layer_2" data-name="Layer 2"><g id="Layer_1-2" data-name="Layer 1"><path d="M10.6,106.94l0,5A8.51,8.51,0,0,0,19,120.47l27,.14a8.5,8.5,0,0,0,8.55-8.46l0-5a8.51,8.51,0,0,0-8.47-8.55l-27-.15A8.51,8.51,0,0,0,10.6,106.94Z" fill="#0a0808"/><path d="M23.83,162.38l2.43,4.25a8.55,8.55,0,0,0,11.66,3.2L61.29,156.5a8.55,8.55,0,0,0,3.19-11.66l-2.43-4.26a8.55,8.55,0,0,0-11.66-3.19L27,150.71A8.56,8.56,0,0,0,23.83,162.38Z" fill="#333232"/><path d="M85.17,165.75l4.23,2.48a8.39,8.39,0,0,1,2.5,2.21,8.55,8.55,0,0,1,1.46,3,8.7,8.7,0,0,1,.2,3.33,8.45,8.45,0,0,1-1.09,3.15L78.89,203.15a8.54,8.54,0,0,1-11.69,3.07L63,203.75a8.56,8.56,0,0,1-3-11.7l13.57-23.23a8.56,8.56,0,0,1,11.65-3.07Z" fill="#484848"/><path d="M117.51,220l5,0a8.5,8.5,0,0,0,8.55-8.46l.15-27a8.53,8.53,0,0,0-8.47-8.56l-5,0a8.5,8.5,0,0,0-8.55,8.46l-.15,27A8.53,8.53,0,0,0,117.51,220Z" fill="#5e5f5f"/><path d="M173,206.79l4.26-2.42a8.56,8.56,0,0,0,3.19-11.67l-13.33-23.36a8.55,8.55,0,0,0-11.66-3.2l-4.26,2.43A8.55,8.55,0,0,0,148,180.23l13.33,23.37A8.55,8.55,0,0,0,173,206.79Z" fill="#747474"/><path d="M214.32,167.62l2.47-4.23a8.55,8.55,0,0,0-3.06-11.7L190.5,138.12a8.54,8.54,0,0,0-11.69,3.07l-2.48,4.23a8.54,8.54,0,0,0,3.07,11.69l23.22,13.58A8.55,8.55,0,0,0,214.32,167.62Z" fill="#868686"/><path d="M230.58,113.09l0-5a8.53,8.53,0,0,0-8.47-8.56l-27-.14a8.5,8.5,0,0,0-8.55,8.46l0,5a8.51,8.51,0,0,0,8.46,8.56l27,.14A8.51,8.51,0,0,0,230.58,113.09Z" fill="#9a9a9a"/><path d="M217.38,57.65,215,53.39a8.55,8.55,0,0,0-11.66-3.19L179.92,63.52a8.56,8.56,0,0,0-3.19,11.67l2.42,4.25a8.56,8.56,0,0,0,11.67,3.19l23.36-13.32A8.54,8.54,0,0,0,217.38,57.65Z" fill="#b0b0b0"/><path d="M178.2,16.27,174,13.8a8.54,8.54,0,0,0-11.69,3.07L148.7,40.09a8.55,8.55,0,0,0,3.07,11.7L156,54.26a8.56,8.56,0,0,0,11.7-3.07L181.27,28A8.56,8.56,0,0,0,178.2,16.27Z" fill="#c2c2c2"/><path d="M123.66,0l-5,0a8.52,8.52,0,0,0-8.56,8.46l-.14,27A8.53,8.53,0,0,0,118.45,44l5,0A8.52,8.52,0,0,0,132,35.56l.14-27A8.5,8.5,0,0,0,123.66,0Z" fill="#d7d7d7"/><path d="M68.22,13.24,64,15.67a8.55,8.55,0,0,0-3.19,11.66L74.09,50.7a8.56,8.56,0,0,0,11.67,3.19L90,51.46a8.54,8.54,0,0,0,3.2-11.66L79.88,16.43A8.55,8.55,0,0,0,68.22,13.24Z" fill="#ebebeb"/><path d="M26.86,52.39l-2.48,4.23a8.55,8.55,0,0,0,3.07,11.7L50.68,81.89a8.54,8.54,0,0,0,11.69-3.06l2.47-4.24A8.54,8.54,0,0,0,61.78,62.9L38.55,49.32A8.55,8.55,0,0,0,26.86,52.39Z" fill="#f4f4f4"/><path d="M38.81,252.2c-5.07,1.75-8.34,6.07-10,13.18-1,4.63-1.14,19.31-.22,25.59,1.09,7,4.2,11.59,8.78,12.92,8.23,2.43,14.94-3.4,18.26-15.85,1.25-4.63,1.75-15.58.93-21.26-1-7.39-3.44-11.22-9-14A9.9,9.9,0,0,0,38.81,252.2Zm5.95,7.28c2.83,1.55,4,4,4.74,9.72.92,7.71-.49,18.14-3.12,23.19-3.21,6.22-8.23,6.27-10,.05a71.45,71.45,0,0,1-1.2-9.25c-1.15-12.08.71-22.23,4.36-24.15,2-1,2.73-1,5.18.44Z" fill="#0a0808" fill-rule="evenodd"/><path d="M99.4,252.32c-.68.81-.89,4.51-1.2,24.78-.42,27.13-.6,25.93,3.77,27,3.73.92,10,0,13.69-2,6.12-3.21,9.06-9.13,10.06-20.33.94-10.06-.48-17.12-4.46-22.72-2.52-3.64-7.65-6.31-13.52-7.12S100.34,251.23,99.4,252.32Zm13.21,8.21c2.39,1.24,3.09,2,4.4,4.56,2.46,5.06,2.73,15.28.53,23.37-1.53,5.55-5.51,8.59-11.17,8.59h-1.63V258.3l2.52.38a17.89,17.89,0,0,1,5.35,1.85Z" fill="#0a0808" fill-rule="evenodd"/><path d="M153.27,252.82l-1.27.61.16,22.55c.1,13.69.37,23.24.74,24.3a3.2,3.2,0,0,0,4.41,2.23c2.42-.9,2.55-2.23,1.86-18.18-.32-8.12-.48-14.91-.32-15.07s3.56,6.37,7.54,14.48c9.1,18.68,8.87,18.26,9.5,18.79a6.64,6.64,0,0,0,2,.8c1.11.26,1.75.05,2.76-1L182,301V290.43c0-5.78-.27-16.13-.53-23-.6-13.58-.8-14.33-3.77-14.33s-3.14.75-2.76,17.2c.16,8.22.16,14.8.05,14.64s-2.6-4.72-5.36-10.24c-5.31-10.35-10.92-19.79-12.48-21.17C155.72,252.34,154.65,252.13,153.27,252.82Z" fill="#0a0808" fill-rule="evenodd"/><path d="M199.25,253c-4.16,2.64-7.93,8.84-9,14.72-1.87,10.19-1.55,21.51.7,26.52,2.77,6.1,8.12,9.24,15.87,9.24,4,0,4.88-.17,7-1.46,3.36-2,4.32-3.66,4.88-8.79,1-7.54.11-8.57-7.64-9.54-5.45-.65-7.12-.27-8.07,1.88-1.34,3,1.44,5.24,6.63,5.24,1.92,0,2,.05,2,1.84a4.45,4.45,0,0,1-.8,2.65c-1.28,1.34-4.38,1.61-7.38.61-5.45-1.78-6.78-4.2-7.16-12.88-.32-6.85.85-15.4,2.57-19a15.07,15.07,0,0,1,3.2-4.15c1.71-1.62,2.52-1.94,4.44-1.94a12.91,12.91,0,0,1,3.66.48c1.22.49,1.34.86,1.55,4.64.22,4.42,1,5.66,3.37,5.66,2,0,2.78-1.57,3.1-6.2.49-6.09-.16-7.71-3.85-9.6-2.56-1.29-3.53-1.45-7.8-1.45S201.45,251.53,199.25,253Z" fill="#0a0808" fill-rule="evenodd"/><path d="M2.21,253.7a3.32,3.32,0,0,0-1.65,1.77C0,257-.19,280,.29,293.08c.48,12.32-.43,11.46,12.07,11.25,10.73-.22,11.64-.49,11.64-3.39s-1.83-3.44-9.72-3.28c-6.25.16-6.84.11-6.89-.81,0-.54-.22-10.06-.37-21.2-.27-15.23-.54-20.45-1.07-21a3.16,3.16,0,0,0-1.72-1.09,3.13,3.13,0,0,0-2,.18Z" fill="#0a0808" fill-rule="evenodd"/><path d="M75.25,254.29c-.61.53-2.56,5.16-4.44,10.27S66,277.61,64.3,282.14c-4.27,11-6.3,17-6.3,18.36a3.35,3.35,0,0,0,3.1,2.93c1.71,0,3.2-2,4.48-6,1.5-4.57,1.83-4.73,10.31-4.86l6.41-.05.7,2.29c.32,1.21,1,3.24,1.33,4.47.86,3,2.89,4.25,5.08,3.09,1.92-1.12,2.08-3.2.61-9.59-.61-2.76-2.09-9.72-3.26-15.43-2.94-14.22-5-21.25-6.68-22.79C78.49,253.15,76.66,253.06,75.25,254.29Zm4.06,22.57c1,4.69,1.65,8.63,1.55,8.74-.48.48-10.58.48-10.42,0,4.44-11.93,6.57-17.31,6.84-17.31a59.54,59.54,0,0,1,2,8.57Z" fill="#0a0808" fill-rule="evenodd"/><path d="M134,253.9c-.95.63-1.38,46-.37,48,1.06,2.13,5.27,2,6-.16.53-1.82.61-24.26.16-35.74-.48-11.07-.91-12.56-3.57-12.56a4.73,4.73,0,0,0-2.19.47Z" fill="#0a0808" fill-rule="evenodd"/><path d="M243.56,297.84a2.72,2.72,0,0,0-.5,1.11,3,3,0,0,0,0,1.23,3,3,0,0,0,.53,1.1,2.68,2.68,0,0,0,.94.76,3,3,0,0,0,3.94-4.25,3,3,0,0,0-1.06-1,2.81,2.81,0,0,0-1.41-.35,2.75,2.75,0,0,0-1.4.38,3,3,0,0,0-1.05,1Z" fill="#0a0808" fill-rule="evenodd"/><path d="M261.54,297.44c-1.57,2.85.53,5.82,3.34,4.77,2-.72,2.82-3.78,1.41-5.13C265.21,296,262.18,296.3,261.54,297.44Z" fill="#0a0808" fill-rule="evenodd"/><path d="M281.89,297.45c-2.08,2.31-.27,5.28,2.95,4.95a2.91,2.91,0,0,0,1.55-.42,3.06,3.06,0,0,0,1.09-1.17c.71-1.33.71-1.6-.11-2.92A3.68,3.68,0,0,0,281.89,297.45Z" fill="#0a0808" fill-rule="evenodd"/></g></g></svg>